# xmcd
#
# Track frame offsets: 
#        150
#        16250
#        27330
#        43141
#        60379
#        76174
#        91286
#        105090
#        116535
#        131060
#        147028
#        161067
#
# Disc length: 2386 seconds
#
# Revision: 0
# Processed by: cddbd v1.5.1PL0 Copyright (c) Steve Scherf et al.
# Submitted via: ExactAudioCopy v0.95a5
#
DISCID=8d09500c
DTITLE=Charly - Heart's Desire
DYEAR=2002
DGENRE=Country
TTITLE0=Gone Like The Wind
TTITLE1=Heart's Desire
TTITLE2=Single Parent Home
TTITLE3=Turnip Truck
TTITLE4=Before The Lights Go Down
TTITLE5=Is It Too Late
TTITLE6=One Fine Day
TTITLE7=Shop Til You Drop
TTITLE8=Since You Went Away
TTITLE9=Dancin' Tonight
TTITLE10=Society Owes Her A Living
TTITLE11=Ain't Askin' For Much
EXTD=
EXTT0=
EXTT1=
EXTT2=
EXTT3=
EXTT4=
EXTT5=
EXTT6=
EXTT7=
EXTT8=
EXTT9=
EXTT10=
EXTT11=
PLAYORDER=
